<svg width="40" height="40" viewBox="0 0 40 40" fill="none" xmlns="http://www.w3.org/2000/svg">
<path d="M28.2834 3.32764H11.6462C7.052 3.32764 3.32764 7.052 3.32764 11.6462V28.2834C3.32764 32.8777 7.052 36.602 11.6462 36.602H28.2834C32.8777 36.602 36.602 32.8777 36.602 28.2834V11.6462C36.602 7.052 32.8777 3.32764 28.2834 3.32764Z" stroke="#E8ECF0" stroke-width="2" stroke-linecap="round" stroke-linejoin="round"/>
<path d="M26.6196 18.9165C26.8249 20.3011 26.5884 21.7153 25.9437 22.9577C25.2991 24.2002 24.279 25.2077 23.0287 25.837C21.7784 26.4664 20.3614 26.6854 18.9795 26.463C17.5975 26.2407 16.3208 25.5882 15.331 24.5984C14.3412 23.6086 13.6887 22.3319 13.4664 20.9499C13.244 19.568 13.463 18.151 14.0924 16.9007C14.7217 15.6504 15.7292 14.6303 16.9717 13.9857C18.2141 13.341 19.6283 13.1045 21.0129 13.3098C22.4253 13.5192 23.7328 14.1774 24.7424 15.187C25.752 16.1966 26.4102 17.5041 26.6196 18.9165Z" stroke="#E8ECF0" stroke-linecap="round" stroke-linejoin="round"/>
<path d="M29.1152 10.814H29.1319" stroke="#E8ECF0" stroke-width="2" stroke-linecap="round" stroke-linejoin="round"/>
</svg>
