<svg width="40" height="40" viewBox="0 0 40 40" fill="none" xmlns="http://www.w3.org/2000/svg">
<path d="M35.009 12.5485C32.8587 12.5461 30.7971 11.6908 29.2766 10.1703C27.7561 8.64974 26.9008 6.58819 26.8984 4.43786C26.8984 4.27239 26.8326 4.11371 26.7156 3.99671C26.5986 3.87971 26.4399 3.81397 26.2745 3.81396H20.0355C19.8701 3.81397 19.7114 3.87971 19.5944 3.99671C19.4774 4.11371 19.4116 4.27239 19.4116 4.43786V24.4025C19.4114 25.0724 19.2315 25.7299 18.8905 26.3065C18.5496 26.8831 18.0602 27.3577 17.4733 27.6807C16.8865 28.0037 16.2237 28.1634 15.5542 28.143C14.8846 28.1225 14.2328 27.9228 13.6667 27.5647C13.1007 27.2065 12.6411 26.703 12.3359 26.1067C12.0307 25.5104 11.8912 24.8431 11.9318 24.1744C11.9724 23.5058 12.1916 22.8603 12.5667 22.3053C12.9418 21.7503 13.4589 21.3061 14.0642 21.0191C14.1708 20.9684 14.2608 20.8886 14.3239 20.7889C14.3869 20.6891 14.4204 20.5735 14.4204 20.4556L14.4205 13.9609C14.4205 13.8697 14.4005 13.7797 14.3619 13.697C14.3234 13.6144 14.2671 13.5412 14.1972 13.4826C14.1273 13.4241 14.0454 13.3816 13.9573 13.3581C13.8692 13.3346 13.777 13.3307 13.6872 13.3467C11.5842 13.7234 9.63218 14.6922 8.06038 16.1393C6.48858 17.5865 5.36218 19.452 4.81337 21.5168C4.26456 23.5816 4.31611 25.7602 4.96198 27.7968C5.60784 29.8333 6.82123 31.6434 8.45972 33.0146C10.0982 34.3858 12.0938 35.2611 14.2123 35.5379C16.3309 35.8148 18.4844 35.4815 20.4202 34.5774C22.356 33.6732 23.9937 32.2357 25.1412 30.4334C26.2886 28.6312 26.8982 26.539 26.8984 24.4025L26.8983 17.7637C29.34 19.2558 32.1475 20.042 35.009 20.0352C35.1745 20.0352 35.3331 19.9695 35.4501 19.8525C35.5672 19.7355 35.6329 19.5768 35.6329 19.4113V13.1724C35.6329 13.0069 35.5672 12.8482 35.4501 12.7312C35.3331 12.6142 35.1745 12.5485 35.009 12.5485ZM34.3851 18.7742C31.5961 18.66 28.9022 17.7282 26.6387 16.0947C26.5455 16.0276 26.4356 15.9876 26.3212 15.979C26.2067 15.9704 26.092 15.9936 25.9899 16.0459C25.8877 16.0983 25.8019 16.1778 25.7421 16.2758C25.6822 16.3738 25.6505 16.4863 25.6505 16.6011L25.6506 24.4025C25.65 26.2694 25.1259 28.0987 24.1378 29.6827C23.1497 31.2667 21.7372 32.5418 20.0608 33.3633C18.3844 34.1848 16.5111 34.5197 14.6539 34.33C12.7967 34.1403 11.0299 33.4336 9.55413 32.2901C8.0784 31.1467 6.95289 29.6123 6.30545 27.8612C5.65801 26.1102 5.51458 24.2127 5.89146 22.3842C6.26833 20.5558 7.15039 18.8696 8.43747 17.5173C9.72456 16.165 11.3651 15.2008 13.1727 14.734L13.1726 20.0794C12.4138 20.5174 11.7836 21.1475 11.3455 21.9063C10.9074 22.665 10.6767 23.5258 10.6766 24.4019C10.6766 25.2781 10.9071 26.1389 11.3452 26.8977C11.7832 27.6565 12.4133 28.2867 13.1721 28.7248C13.9308 29.1629 14.7916 29.3936 15.6677 29.3937C16.5439 29.3937 17.4047 29.1631 18.1635 28.7251C18.9223 28.287 19.5524 27.6569 19.9906 26.8982C20.4287 26.1394 20.6594 25.2787 20.6594 24.4025V5.06175H25.6711C25.8253 7.32204 26.7929 9.45 28.3949 11.052C29.9969 12.654 32.1248 13.6215 34.3851 13.7757V18.7742Z" fill="#E8ECF0" stroke="#E8ECF0"/>
</svg>
