<svg width="41" height="40" viewBox="0 0 41 40" fill="none" xmlns="http://www.w3.org/2000/svg">
<path d="M38.1788 10.7161C37.9811 9.92656 37.5786 9.20311 37.0119 8.61887C36.4452 8.03463 35.7344 7.61029 34.9512 7.3887C32.0896 6.68994 20.6432 6.68994 20.6432 6.68994C20.6432 6.68994 9.19678 6.68994 6.33519 7.45525C5.55199 7.67683 4.84113 8.10118 4.27441 8.68542C3.7077 9.26966 3.3052 9.99311 3.10757 10.7827C2.58386 13.6868 2.32768 16.6328 2.34226 19.5838C2.32359 22.5569 2.57979 25.5254 3.10757 28.4514C3.32545 29.2165 3.73697 29.9124 4.30236 30.4719C4.86775 31.0315 5.56791 31.4358 6.33519 31.6457C9.19678 32.411 20.6432 32.411 20.6432 32.411C20.6432 32.411 32.0896 32.411 34.9512 31.6457C35.7344 31.4242 36.4452 30.9998 37.0119 30.4156C37.5786 29.8313 37.9811 29.1079 38.1788 28.3183C38.6985 25.436 38.9546 22.5125 38.9441 19.5838C38.9628 16.6106 38.7066 13.6421 38.1788 10.7161Z" stroke="#E8ECF0" stroke-width="2" stroke-linecap="round" stroke-linejoin="round"/>
<path d="M16.8999 25.0243L26.4663 19.5839L16.8999 14.1436V25.0243Z" stroke="#E8ECF0" stroke-width="2" stroke-linecap="round" stroke-linejoin="round"/>
</svg>
